<svg xmlns="http://www.w3.org/2000/svg" xmlns:xlink="http://www.w3.org/1999/xlink" width="180" zoomAndPan="magnify" viewBox="0 0 135 74.999997" height="100" preserveAspectRatio="xMidYMid meet" version="1.0"><defs><g/><clipPath id="119b17fba1"><path d="M 24.6875 26.203125 L 33.6875 26.203125 L 33.6875 50.203125 L 24.6875 50.203125 Z M 24.6875 26.203125 " clip-rule="nonzero"/></clipPath><clipPath id="cbfc59c148"><rect x="0" width="34" y="0" height="7"/></clipPath><clipPath id="e655a7e2ab"><path d="M 26 0.0390625 L 37 0.0390625 L 37 16 L 26 16 Z M 26 0.0390625 " clip-rule="nonzero"/></clipPath><clipPath id="e627e893ca"><path d="M 38 0.0390625 L 53 0.0390625 L 53 21 L 38 21 Z M 38 0.0390625 " clip-rule="nonzero"/></clipPath><clipPath id="57a4b34420"><rect x="0" width="65" y="0" height="22"/></clipPath><clipPath id="04f7bfc632"><path d="M 101.304688 22.441406 L 110.304688 22.441406 L 110.304688 46.441406 L 101.304688 46.441406 Z M 101.304688 22.441406 " clip-rule="nonzero"/></clipPath><clipPath id="63339a0bb0"><path d="M 94.660156 28.441406 L 103.660156 28.441406 L 103.660156 52.441406 L 94.660156 52.441406 Z M 94.660156 28.441406 " clip-rule="nonzero"/></clipPath></defs><g clip-path="url(#119b17fba1)"><path fill="#211d1d" d="M 30.835938 50.507812 L 33.503906 50.507812 L 33.503906 48.347656 L 30.835938 48.347656 C 30.210938 48.347656 29.703125 47.839844 29.703125 47.214844 L 29.703125 41.75 C 29.703125 40.523438 29.078125 39.402344 28.035156 38.75 L 27.453125 38.382812 L 28.035156 38.019531 C 29.078125 37.367188 29.703125 36.246094 29.703125 35.019531 L 29.703125 29.554688 C 29.703125 28.929688 30.210938 28.421875 30.835938 28.421875 L 33.503906 28.421875 L 33.503906 26.261719 L 30.835938 26.261719 C 29.019531 26.261719 27.542969 27.738281 27.542969 29.554688 L 27.542969 35.019531 C 27.542969 35.78125 26.925781 36.398438 26.164062 36.398438 L 24.6875 36.398438 L 24.6875 40.371094 L 26.164062 40.371094 C 26.925781 40.371094 27.542969 40.988281 27.542969 41.75 L 27.542969 47.214844 C 27.542969 49.03125 29.019531 50.507812 30.835938 50.507812 " fill-opacity="1" fill-rule="nonzero"/></g><g transform="matrix(1, 0, 0, 1, 35, 46)"><g clip-path="url(#cbfc59c148)"><g fill="#545454" fill-opacity="1"><g transform="translate(0.950327, 4.910425)"><g><path d="M 1 -3.765625 C 1.28125 -3.765625 1.488281 -3.679688 1.625 -3.515625 C 1.757812 -3.347656 1.828125 -3.117188 1.828125 -2.828125 L 1.828125 -2.734375 L 1.4375 -2.734375 L 1.4375 -2.859375 C 1.4375 -3.023438 1.398438 -3.15625 1.328125 -3.25 C 1.265625 -3.34375 1.15625 -3.390625 1 -3.390625 C 0.851562 -3.390625 0.742188 -3.34375 0.671875 -3.25 C 0.609375 -3.15625 0.578125 -3.023438 0.578125 -2.859375 C 0.578125 -2.722656 0.609375 -2.601562 0.671875 -2.5 C 0.734375 -2.394531 0.8125 -2.296875 0.90625 -2.203125 C 1 -2.117188 1.097656 -2.035156 1.203125 -1.953125 C 1.316406 -1.867188 1.414062 -1.773438 1.5 -1.671875 C 1.59375 -1.578125 1.671875 -1.46875 1.734375 -1.34375 C 1.796875 -1.21875 1.828125 -1.066406 1.828125 -0.890625 C 1.828125 -0.609375 1.757812 -0.382812 1.625 -0.21875 C 1.488281 -0.0507812 1.273438 0.03125 0.984375 0.03125 C 0.703125 0.03125 0.492188 -0.0507812 0.359375 -0.21875 C 0.222656 -0.382812 0.15625 -0.609375 0.15625 -0.890625 L 0.15625 -1.109375 L 0.546875 -1.109375 L 0.546875 -0.875 C 0.546875 -0.707031 0.578125 -0.578125 0.640625 -0.484375 C 0.710938 -0.390625 0.828125 -0.34375 0.984375 -0.34375 C 1.128906 -0.34375 1.238281 -0.390625 1.3125 -0.484375 C 1.382812 -0.578125 1.421875 -0.707031 1.421875 -0.875 C 1.421875 -1.007812 1.390625 -1.128906 1.328125 -1.234375 C 1.265625 -1.335938 1.1875 -1.429688 1.09375 -1.515625 C 1 -1.597656 0.898438 -1.679688 0.796875 -1.765625 C 0.691406 -1.847656 0.59375 -1.9375 0.5 -2.03125 C 0.40625 -2.132812 0.328125 -2.25 0.265625 -2.375 C 0.203125 -2.507812 0.171875 -2.660156 0.171875 -2.828125 C 0.171875 -3.117188 0.238281 -3.347656 0.375 -3.515625 C 0.507812 -3.679688 0.71875 -3.765625 1 -3.765625 Z M 1 -3.765625 "/></g></g></g><g fill="#545454" fill-opacity="1"><g transform="translate(5.065163, 4.910425)"><g><path d="M 0.1875 -2.828125 C 0.1875 -3.117188 0.253906 -3.347656 0.390625 -3.515625 C 0.535156 -3.679688 0.75 -3.765625 1.03125 -3.765625 C 1.320312 -3.765625 1.535156 -3.679688 1.671875 -3.515625 C 1.816406 -3.347656 1.890625 -3.117188 1.890625 -2.828125 L 1.890625 -0.90625 C 1.890625 -0.613281 1.816406 -0.382812 1.671875 -0.21875 C 1.535156 -0.0507812 1.320312 0.03125 1.03125 0.03125 C 0.75 0.03125 0.535156 -0.0507812 0.390625 -0.21875 C 0.253906 -0.382812 0.1875 -0.613281 0.1875 -0.90625 Z M 0.59375 -0.875 C 0.59375 -0.707031 0.628906 -0.578125 0.703125 -0.484375 C 0.773438 -0.390625 0.882812 -0.34375 1.03125 -0.34375 C 1.1875 -0.34375 1.296875 -0.390625 1.359375 -0.484375 C 1.429688 -0.578125 1.46875 -0.707031 1.46875 -0.875 L 1.46875 -2.84375 C 1.46875 -3.019531 1.429688 -3.15625 1.359375 -3.25 C 1.296875 -3.34375 1.1875 -3.390625 1.03125 -3.390625 C 0.882812 -3.390625 0.773438 -3.34375 0.703125 -3.25 C 0.628906 -3.15625 0.59375 -3.019531 0.59375 -2.84375 Z M 0.59375 -0.875 "/></g></g></g><g fill="#545454" fill-opacity="1"><g transform="translate(9.270579, 4.910425)"><g><path d="M 0.21875 0 L 0.21875 -3.734375 L 0.625 -3.734375 L 0.625 -0.375 L 1.6875 -0.375 L 1.6875 0 Z M 0.21875 0 "/></g></g></g><g fill="#545454" fill-opacity="1"><g transform="translate(13.198931, 4.910425)"><g><path d="M 0.609375 -0.875 C 0.609375 -0.707031 0.640625 -0.578125 0.703125 -0.484375 C 0.773438 -0.390625 0.890625 -0.34375 1.046875 -0.34375 C 1.191406 -0.34375 1.296875 -0.390625 1.359375 -0.484375 C 1.429688 -0.578125 1.46875 -0.707031 1.46875 -0.875 L 1.46875 -3.734375 L 1.859375 -3.734375 L 1.859375 -0.90625 C 1.859375 -0.613281 1.789062 -0.378906 1.65625 -0.203125 C 1.519531 -0.0351562 1.3125 0.046875 1.03125 0.046875 C 0.75 0.046875 0.539062 -0.0351562 0.40625 -0.203125 C 0.269531 -0.378906 0.203125 -0.613281 0.203125 -0.90625 L 0.203125 -3.734375 L 0.609375 -3.734375 Z M 0.609375 -0.875 "/></g></g></g><g fill="#545454" fill-opacity="1"><g transform="translate(17.393691, 4.910425)"><g><path d="M 0.75 0 L 0.75 -3.34375 L 0.0625 -3.34375 L 0.0625 -3.734375 L 1.859375 -3.734375 L 1.859375 -3.34375 L 1.171875 -3.34375 L 1.171875 0 Z M 0.75 0 "/></g></g></g><g fill="#545454" fill-opacity="1"><g transform="translate(21.460572, 4.910425)"><g><path d="M 0.625 -3.734375 L 0.625 0 L 0.21875 0 L 0.21875 -3.734375 Z M 0.625 -3.734375 "/></g></g></g><g fill="#545454" fill-opacity="1"><g transform="translate(24.435187, 4.910425)"><g><path d="M 0.1875 -2.828125 C 0.1875 -3.117188 0.253906 -3.347656 0.390625 -3.515625 C 0.535156 -3.679688 0.75 -3.765625 1.03125 -3.765625 C 1.320312 -3.765625 1.535156 -3.679688 1.671875 -3.515625 C 1.816406 -3.347656 1.890625 -3.117188 1.890625 -2.828125 L 1.890625 -0.90625 C 1.890625 -0.613281 1.816406 -0.382812 1.671875 -0.21875 C 1.535156 -0.0507812 1.320312 0.03125 1.03125 0.03125 C 0.75 0.03125 0.535156 -0.0507812 0.390625 -0.21875 C 0.253906 -0.382812 0.1875 -0.613281 0.1875 -0.90625 Z M 0.59375 -0.875 C 0.59375 -0.707031 0.628906 -0.578125 0.703125 -0.484375 C 0.773438 -0.390625 0.882812 -0.34375 1.03125 -0.34375 C 1.1875 -0.34375 1.296875 -0.390625 1.359375 -0.484375 C 1.429688 -0.578125 1.46875 -0.707031 1.46875 -0.875 L 1.46875 -2.84375 C 1.46875 -3.019531 1.429688 -3.15625 1.359375 -3.25 C 1.296875 -3.34375 1.1875 -3.390625 1.03125 -3.390625 C 0.882812 -3.390625 0.773438 -3.34375 0.703125 -3.25 C 0.628906 -3.15625 0.59375 -3.019531 0.59375 -2.84375 Z M 0.59375 -0.875 "/></g></g></g><g fill="#545454" fill-opacity="1"><g transform="translate(28.640603, 4.910425)"><g><path d="M 0.578125 0 L 0.203125 0 L 0.203125 -3.734375 L 0.734375 -3.734375 L 1.59375 -1.03125 L 1.59375 -3.734375 L 1.96875 -3.734375 L 1.96875 0 L 1.53125 0 L 0.578125 -3.015625 Z M 0.578125 0 "/></g></g></g></g></g><g transform="matrix(1, 0, 0, 1, 31, 29)"><g clip-path="url(#57a4b34420)"><g fill="#000000" fill-opacity="1"><g transform="translate(0.335543, 15.528515)"><g><path d="M 9.046875 -13.890625 C 8.523438 -13.878906 8.132812 -13.8125 7.875 -13.6875 C 7.625 -13.570312 7.445312 -13.375 7.34375 -13.09375 C 7.238281 -12.820312 7.164062 -12.40625 7.125 -11.84375 L 6.59375 -3.578125 L 6.640625 -3.53125 L 12.21875 -11.328125 L 12.21875 -12.171875 C 12.21875 -12.679688 12.164062 -13.050781 12.0625 -13.28125 C 11.96875 -13.519531 11.789062 -13.675781 11.53125 -13.75 C 11.269531 -13.832031 10.863281 -13.878906 10.3125 -13.890625 L 10.3125 -14.265625 L 16.28125 -14.265625 L 16.28125 -13.890625 C 15.5625 -13.890625 15.0625 -13.78125 14.78125 -13.5625 C 14.507812 -13.351562 14.351562 -12.925781 14.3125 -12.28125 L 13.765625 -3.578125 L 13.8125 -3.53125 L 19.421875 -11.390625 C 19.734375 -11.816406 19.953125 -12.144531 20.078125 -12.375 C 20.210938 -12.613281 20.28125 -12.84375 20.28125 -13.0625 C 20.28125 -13.601562 19.882812 -13.878906 19.09375 -13.890625 L 19.09375 -14.265625 L 23.25 -14.265625 L 23.25 -13.890625 C 22.851562 -13.859375 22.5 -13.738281 22.1875 -13.53125 C 21.875 -13.320312 21.519531 -12.972656 21.125 -12.484375 C 20.726562 -11.992188 20.148438 -11.222656 19.390625 -10.171875 L 11.859375 0.3125 L 11.484375 0.3125 L 12.140625 -10.015625 L 12.09375 -10.015625 L 4.71875 0.3125 L 4.3125 0.3125 L 5.015625 -11.0625 C 5.015625 -11.1875 5.023438 -11.375 5.046875 -11.625 C 5.078125 -12.019531 5.09375 -12.3125 5.09375 -12.5 C 5.09375 -13.0625 4.96875 -13.429688 4.71875 -13.609375 C 4.476562 -13.796875 4.097656 -13.890625 3.578125 -13.890625 L 3.578125 -14.265625 L 9.046875 -14.265625 Z M 9.046875 -13.890625 "/></g></g></g><g fill="#000000" fill-opacity="1"><g transform="translate(18.437, 15.528515)"><g><path d="M 6.84375 -9.65625 C 7.4375 -9.65625 7.929688 -9.503906 8.328125 -9.203125 C 8.734375 -8.910156 8.9375 -8.535156 8.9375 -8.078125 C 8.9375 -7.628906 8.722656 -7.113281 8.296875 -6.53125 C 7.878906 -5.957031 7.191406 -5.445312 6.234375 -5 C 5.285156 -4.550781 4.082031 -4.304688 2.625 -4.265625 C 2.539062 -3.984375 2.5 -3.640625 2.5 -3.234375 C 2.5 -2.367188 2.726562 -1.742188 3.1875 -1.359375 C 3.65625 -0.972656 4.171875 -0.78125 4.734375 -0.78125 C 5.679688 -0.78125 6.640625 -1.253906 7.609375 -2.203125 L 7.890625 -1.9375 C 6.378906 -0.476562 4.921875 0.25 3.515625 0.25 C 2.929688 0.25 2.425781 0.109375 2 -0.171875 C 1.570312 -0.460938 1.25 -0.84375 1.03125 -1.3125 C 0.8125 -1.78125 0.703125 -2.257812 0.703125 -2.75 C 0.703125 -3.738281 0.984375 -4.773438 1.546875 -5.859375 C 2.117188 -6.941406 2.878906 -7.84375 3.828125 -8.5625 C 4.785156 -9.289062 5.789062 -9.65625 6.84375 -9.65625 Z M 2.75 -4.671875 C 3.707031 -4.742188 4.484375 -4.90625 5.078125 -5.15625 C 5.648438 -5.40625 6.113281 -5.734375 6.46875 -6.140625 C 6.832031 -6.546875 7.09375 -6.941406 7.25 -7.328125 C 7.40625 -7.710938 7.484375 -8.03125 7.484375 -8.28125 C 7.484375 -8.519531 7.394531 -8.742188 7.21875 -8.953125 C 7.039062 -9.160156 6.789062 -9.265625 6.46875 -9.265625 C 5.90625 -9.265625 5.359375 -9 4.828125 -8.46875 C 4.296875 -7.945312 3.84375 -7.328125 3.46875 -6.609375 C 3.101562 -5.890625 2.863281 -5.242188 2.75 -4.671875 Z M 2.75 -4.671875 "/></g></g></g><g clip-path="url(#e655a7e2ab)"><g fill="#000000" fill-opacity="1"><g transform="translate(26.218895, 15.528515)"><g><path d="M 6.109375 -15.15625 L 3.96875 -7.734375 L 4.015625 -7.6875 C 4.566406 -8.382812 5.125 -8.882812 5.6875 -9.1875 C 6.25 -9.5 6.789062 -9.65625 7.3125 -9.65625 C 8.019531 -9.65625 8.625 -9.414062 9.125 -8.9375 C 9.632812 -8.457031 9.890625 -7.726562 9.890625 -6.75 C 9.890625 -5.757812 9.59375 -4.710938 9 -3.609375 C 8.414062 -2.515625 7.644531 -1.597656 6.6875 -0.859375 C 5.726562 -0.117188 4.734375 0.25 3.703125 0.25 C 2.628906 0.25 1.554688 -0.175781 0.484375 -1.03125 L 3.734375 -12.34375 C 3.785156 -12.46875 3.847656 -12.664062 3.921875 -12.9375 C 3.992188 -13.207031 4.03125 -13.441406 4.03125 -13.640625 C 4.03125 -14.054688 3.789062 -14.265625 3.3125 -14.265625 C 3.21875 -14.265625 3.109375 -14.25 2.984375 -14.21875 C 2.867188 -14.195312 2.773438 -14.1875 2.703125 -14.1875 L 2.6875 -14.609375 L 5.796875 -15.15625 Z M 3.78125 -0.1875 C 4.625 -0.1875 5.378906 -0.523438 6.046875 -1.203125 C 6.722656 -1.878906 7.25 -2.710938 7.625 -3.703125 C 8 -4.703125 8.1875 -5.648438 8.1875 -6.546875 C 8.1875 -7.179688 8.054688 -7.6875 7.796875 -8.0625 C 7.546875 -8.445312 7.148438 -8.640625 6.609375 -8.640625 C 5.992188 -8.640625 5.375 -8.394531 4.75 -7.90625 C 4.132812 -7.425781 3.675781 -6.671875 3.375 -5.640625 L 1.984375 -0.796875 C 2.296875 -0.597656 2.59375 -0.445312 2.875 -0.34375 C 3.15625 -0.238281 3.457031 -0.1875 3.78125 -0.1875 Z M 3.78125 -0.1875 "/></g></g></g></g><g fill="#000000" fill-opacity="1"><g transform="translate(35.311886, 15.528515)"><g><path d="M 4.984375 -9.65625 C 5.492188 -9.65625 5.972656 -9.535156 6.421875 -9.296875 C 6.679688 -9.179688 6.859375 -9.125 6.953125 -9.125 C 7.222656 -9.125 7.441406 -9.300781 7.609375 -9.65625 L 7.984375 -9.65625 L 7.421875 -6.453125 L 7.046875 -6.453125 C 7.046875 -7.367188 6.863281 -8.054688 6.5 -8.515625 C 6.144531 -8.984375 5.703125 -9.21875 5.171875 -9.21875 C 4.796875 -9.21875 4.484375 -9.097656 4.234375 -8.859375 C 3.992188 -8.617188 3.875 -8.347656 3.875 -8.046875 C 3.875 -7.710938 3.96875 -7.375 4.15625 -7.03125 C 4.351562 -6.6875 4.664062 -6.234375 5.09375 -5.671875 C 5.570312 -5.046875 5.9375 -4.5 6.1875 -4.03125 C 6.445312 -3.570312 6.578125 -3.085938 6.578125 -2.578125 C 6.578125 -2.097656 6.445312 -1.644531 6.1875 -1.21875 C 5.925781 -0.789062 5.554688 -0.4375 5.078125 -0.15625 C 4.597656 0.113281 4.039062 0.25 3.40625 0.25 C 3.039062 0.25 2.597656 0.160156 2.078125 -0.015625 C 1.703125 -0.128906 1.460938 -0.1875 1.359375 -0.1875 C 1.085938 -0.1875 0.847656 -0.0390625 0.640625 0.25 L 0.1875 0.25 L 0.796875 -3.125 L 1.21875 -3.125 C 1.28125 -2.28125 1.453125 -1.578125 1.734375 -1.015625 C 2.023438 -0.460938 2.566406 -0.1875 3.359375 -0.1875 C 3.910156 -0.1875 4.335938 -0.375 4.640625 -0.75 C 4.953125 -1.125 5.109375 -1.515625 5.109375 -1.921875 C 5.109375 -2.222656 5.023438 -2.53125 4.859375 -2.84375 C 4.691406 -3.15625 4.5 -3.46875 4.28125 -3.78125 C 4.070312 -4.09375 3.9375 -4.296875 3.875 -4.390625 L 3.546875 -4.859375 C 3.179688 -5.367188 2.910156 -5.804688 2.734375 -6.171875 C 2.554688 -6.535156 2.46875 -6.929688 2.46875 -7.359375 C 2.46875 -7.867188 2.601562 -8.296875 2.875 -8.640625 C 3.144531 -8.984375 3.472656 -9.238281 3.859375 -9.40625 C 4.253906 -9.570312 4.628906 -9.65625 4.984375 -9.65625 Z M 4.984375 -9.65625 "/></g></g></g><g clip-path="url(#e627e893ca)"><g fill="#000000" fill-opacity="1"><g transform="translate(41.973003, 15.528515)"><g><path d="M 4.1875 -10.890625 C 4.789062 -12.160156 5.476562 -13.1875 6.25 -13.96875 C 7.019531 -14.757812 7.875 -15.15625 8.8125 -15.15625 C 9.28125 -15.15625 9.6875 -15.050781 10.03125 -14.84375 C 10.375 -14.632812 10.546875 -14.335938 10.546875 -13.953125 C 10.546875 -13.679688 10.457031 -13.453125 10.28125 -13.265625 C 10.101562 -13.085938 9.894531 -13 9.65625 -13 C 9.476562 -13 9.328125 -13.0625 9.203125 -13.1875 C 9.085938 -13.3125 9.03125 -13.46875 9.03125 -13.65625 C 9.03125 -13.757812 9.082031 -13.890625 9.1875 -14.046875 C 9.289062 -14.210938 9.34375 -14.335938 9.34375 -14.421875 C 9.34375 -14.515625 9.289062 -14.597656 9.1875 -14.671875 C 9.09375 -14.742188 8.976562 -14.78125 8.84375 -14.78125 C 8.25 -14.78125 7.738281 -14.539062 7.3125 -14.0625 C 6.894531 -13.582031 6.539062 -12.972656 6.25 -12.234375 C 5.957031 -11.503906 5.65625 -10.566406 5.34375 -9.421875 L 6.84375 -9.421875 L 6.65625 -8.765625 L 5.15625 -8.765625 L 4.078125 -4.53125 C 3.710938 -3.070312 3.300781 -1.710938 2.84375 -0.453125 C 2.394531 0.804688 1.78125 1.953125 1 2.984375 C 0.21875 4.015625 -0.695312 4.53125 -1.75 4.53125 C -2.1875 4.53125 -2.539062 4.429688 -2.8125 4.234375 C -3.09375 4.046875 -3.234375 3.796875 -3.234375 3.484375 C -3.234375 3.265625 -3.140625 3.0625 -2.953125 2.875 C -2.773438 2.6875 -2.554688 2.59375 -2.296875 2.59375 C -2.085938 2.59375 -1.921875 2.648438 -1.796875 2.765625 C -1.679688 2.890625 -1.625 3.023438 -1.625 3.171875 C -1.625 3.285156 -1.695312 3.421875 -1.84375 3.578125 C -2 3.734375 -2.078125 3.835938 -2.078125 3.890625 C -2.078125 3.941406 -2.039062 3.984375 -1.96875 4.015625 C -1.90625 4.054688 -1.832031 4.078125 -1.75 4.078125 C -1.21875 4.078125 -0.738281 3.878906 -0.3125 3.484375 C 0.101562 3.085938 0.429688 2.5625 0.671875 1.90625 C 0.953125 1.101562 1.242188 0.144531 1.546875 -0.96875 L 3.53125 -8.765625 L 1.625 -8.765625 L 1.8125 -9.421875 L 2.140625 -9.421875 C 2.546875 -9.421875 2.867188 -9.472656 3.109375 -9.578125 C 3.347656 -9.691406 3.539062 -9.847656 3.6875 -10.046875 C 3.832031 -10.242188 4 -10.523438 4.1875 -10.890625 Z M 4.1875 -10.890625 "/></g></g></g></g><g fill="#000000" fill-opacity="1"><g transform="translate(47.53449, 15.528515)"><g><path d="M 4.484375 -9.65625 L 3.1875 -4.1875 C 3.445312 -4.800781 3.8125 -5.535156 4.28125 -6.390625 C 4.75 -7.253906 5.25 -8.015625 5.78125 -8.671875 C 6.320312 -9.328125 6.8125 -9.65625 7.25 -9.65625 C 7.4375 -9.65625 7.597656 -9.59375 7.734375 -9.46875 C 7.878906 -9.34375 7.953125 -9.15625 7.953125 -8.90625 C 7.953125 -8.507812 7.867188 -8.101562 7.703125 -7.6875 C 7.546875 -7.28125 7.273438 -7.078125 6.890625 -7.078125 C 6.691406 -7.078125 6.554688 -7.125 6.484375 -7.21875 C 6.421875 -7.320312 6.367188 -7.472656 6.328125 -7.671875 C 6.296875 -7.816406 6.257812 -7.921875 6.21875 -7.984375 C 6.1875 -8.046875 6.125 -8.078125 6.03125 -8.078125 C 5.789062 -8.078125 5.453125 -7.695312 5.015625 -6.9375 C 4.578125 -6.175781 4.144531 -5.300781 3.71875 -4.3125 C 3.300781 -3.320312 3.019531 -2.582031 2.875 -2.09375 L 2.28125 0 L 0.71875 0 L 2.390625 -6.828125 C 2.398438 -6.867188 2.441406 -7.039062 2.515625 -7.34375 C 2.585938 -7.644531 2.625 -7.914062 2.625 -8.15625 C 2.625 -8.382812 2.554688 -8.53125 2.421875 -8.59375 C 2.296875 -8.664062 2.128906 -8.703125 1.921875 -8.703125 C 1.765625 -8.703125 1.625 -8.695312 1.5 -8.6875 C 1.382812 -8.675781 1.289062 -8.660156 1.21875 -8.640625 L 1.328125 -9.046875 L 4.125 -9.65625 Z M 4.484375 -9.65625 "/></g></g></g><g fill="#000000" fill-opacity="1"><g transform="translate(53.751509, 15.528515)"><g><path d="M 5.109375 -7.203125 L 5.4375 -1.0625 C 6.414062 -2.269531 7.304688 -3.484375 8.109375 -4.703125 C 8.921875 -5.921875 9.328125 -6.8125 9.328125 -7.375 C 9.328125 -7.457031 9.289062 -7.523438 9.21875 -7.578125 C 9.15625 -7.628906 9.054688 -7.691406 8.921875 -7.765625 C 8.679688 -7.859375 8.488281 -7.972656 8.34375 -8.109375 C 8.207031 -8.253906 8.140625 -8.472656 8.140625 -8.765625 C 8.140625 -9.023438 8.226562 -9.238281 8.40625 -9.40625 C 8.582031 -9.570312 8.78125 -9.65625 9 -9.65625 C 9.257812 -9.65625 9.507812 -9.550781 9.75 -9.34375 C 10 -9.132812 10.125 -8.734375 10.125 -8.140625 C 10.125 -7.597656 9.960938 -7.015625 9.640625 -6.390625 C 9.316406 -5.773438 8.800781 -4.941406 8.09375 -3.890625 C 7.320312 -2.734375 6.359375 -1.4375 5.203125 0 C 4.046875 1.445312 3.113281 2.539062 2.40625 3.28125 C 1.59375 4.113281 0.851562 4.53125 0.1875 4.53125 C -0.03125 4.53125 -0.226562 4.445312 -0.40625 4.28125 C -0.582031 4.113281 -0.671875 3.925781 -0.671875 3.71875 C -0.671875 3.445312 -0.554688 3.195312 -0.328125 2.96875 C -0.109375 2.738281 0.140625 2.625 0.421875 2.625 C 0.546875 2.625 0.632812 2.65625 0.6875 2.71875 C 0.75 2.789062 0.820312 2.898438 0.90625 3.046875 C 1.007812 3.265625 1.113281 3.375 1.21875 3.375 C 1.351562 3.375 1.640625 3.195312 2.078125 2.84375 C 2.515625 2.5 3.15625 1.796875 4 0.734375 L 3.65625 -5.890625 C 3.613281 -6.597656 3.5625 -7.140625 3.5 -7.515625 C 3.445312 -7.890625 3.328125 -8.1875 3.140625 -8.40625 C 2.953125 -8.632812 2.660156 -8.75 2.265625 -8.75 C 1.992188 -8.75 1.742188 -8.722656 1.515625 -8.671875 L 1.421875 -9.046875 L 4.546875 -9.65625 C 4.753906 -9.332031 4.894531 -8.976562 4.96875 -8.59375 C 5.039062 -8.21875 5.085938 -7.753906 5.109375 -7.203125 Z M 5.109375 -7.203125 "/></g></g></g></g></g><g clip-path="url(#04f7bfc632)"><path fill="#ffffff" d="M 104.152344 22.140625 L 101.484375 22.140625 L 101.484375 24.296875 L 104.152344 24.296875 C 104.777344 24.296875 105.285156 24.804688 105.285156 25.429688 L 105.285156 30.894531 C 105.285156 32.121094 105.910156 33.242188 106.953125 33.894531 L 107.535156 34.261719 L 106.953125 34.625 C 105.910156 35.28125 105.285156 36.402344 105.285156 37.625 L 105.285156 43.089844 C 105.285156 43.714844 104.777344 44.222656 104.152344 44.222656 L 101.484375 44.222656 L 101.484375 46.382812 L 104.152344 46.382812 C 105.96875 46.382812 107.445312 44.90625 107.445312 43.089844 L 107.445312 37.625 C 107.445312 36.867188 108.0625 36.246094 108.824219 36.246094 L 110.304688 36.246094 L 110.304688 32.277344 L 108.824219 32.277344 C 108.0625 32.277344 107.445312 31.65625 107.445312 30.894531 L 107.445312 25.429688 C 107.445312 23.617188 105.96875 22.140625 104.152344 22.140625 " fill-opacity="1" fill-rule="nonzero"/></g><g clip-path="url(#63339a0bb0)"><path fill="#211d1d" d="M 97.507812 28.140625 L 94.839844 28.140625 L 94.839844 30.300781 L 97.507812 30.300781 C 98.132812 30.300781 98.640625 30.808594 98.640625 31.433594 L 98.640625 36.898438 C 98.640625 38.121094 99.265625 39.242188 100.308594 39.898438 L 100.890625 40.261719 L 100.308594 40.628906 C 99.265625 41.28125 98.640625 42.402344 98.640625 43.628906 L 98.640625 49.09375 C 98.640625 49.71875 98.132812 50.226562 97.507812 50.226562 L 94.839844 50.226562 L 94.839844 52.382812 L 97.507812 52.382812 C 99.324219 52.382812 100.800781 50.90625 100.800781 49.09375 L 100.800781 43.628906 C 100.800781 42.867188 101.417969 42.246094 102.179688 42.246094 L 103.660156 42.246094 L 103.660156 38.277344 L 102.179688 38.277344 C 101.417969 38.277344 100.800781 37.65625 100.800781 36.898438 L 100.800781 31.433594 C 100.800781 29.617188 99.324219 28.140625 97.507812 28.140625 " fill-opacity="1" fill-rule="nonzero"/></g></svg>